<svg width="320" height="120" viewBox="0 0 320 120" fill="none" xmlns="http://www.w3.org/2000/svg">
<path d="M279.2 98.1C279.3 98 279.4 98 279.5 98C287.5 97.5 287.4 97.5 287.3 89.2C287.3 86.7 286.3 86.3 284.2 86.4C280.2 86.5 276.2 86.3 272.2 86.5C270.1 86.6 269.7 85.6 269.7 83.8001C269.7 82.0001 270.1 81.1001 272.2 81.2001C276.3 81.3001 280.4 81.3001 284.6 81.2001C285.8 81.2001 287.6 81.5001 287.2 79.6001C286.3 75.4001 288.9 73.9001 291.9 72.4001C292.8 72.0001 293.5 71.3001 294.7 70.4001C291.5 69.4001 288.6 70.0001 285.7 69.9001C282.8 69.8001 280 69.8001 277.1 69.9001C275.1 70.0001 273.8 69.8001 273.9 67.2001C273.9 64.7001 275.2 64.7001 277 64.7001C285.2 64.7001 293.5 64.7001 301.7 64.6001C303.7 64.6001 305.2 65.8001 306 67.2001C306.9 68.7001 304.7 69.3001 303.9 70.1001C301.1 72.7001 297.9 75.0001 294.5 76.9001C293.1 77.7001 292.4 78.6001 292.7 80.2001C293 82.2001 294.6 81.4001 295.7 81.4001C299.7 81.5001 303.7 81.5001 307.7 81.4001C309.6 81.3001 310 82.2001 309.9 83.9001C309.8 85.5 310 86.8 307.6 86.7C303.9 86.5 300.1 86.8 296.4 86.6C293.6 86.4 292.2 87.1 292.6 90.2C292.9 92.3 292.7 94.4 292.6 96.6C292.5 101.3 291.3 102.7 286.4 103.3C280.8 103.7 280.6 103.6 279.2 98.1Z" fill="white"/>
<path d="M175.3 79.9998C174.3 80.0998 173.3 80.0998 172.3 79.9998C171.3 79.8998 169.9 80.5998 169.5 79.0998C169.2 77.8998 169.4 76.6998 170.4 75.6998C172.1 73.8998 173.8 71.9998 175.3 69.9998C176 68.9998 177.8 67.9998 176.7 66.5998C175.8 65.3998 174.4 64.4998 172.5 64.5998C168.6 64.7998 164.7 64.8998 160.9 64.5998C157.3 64.2998 155.4 65.0998 156.2 69.0998C160.3 69.0998 164.3 69.0998 168.9 69.0998C168.1 71.3998 166.7 72.5998 165.6 73.9998C165 74.7998 163.8 75.5998 163.9 76.2998C164.4 80.1998 162 79.9998 159.4 79.8998C154.5 79.7998 154.5 79.8998 154.7 84.8998C155.1 84.8998 155.4 84.8998 155.8 84.8998C163.7 84.8998 163.7 84.8998 163.7 92.8C163.7 98 163.7 98 158.6 98.1C158.3 98.1 158 98.4 157.5 98.6C158.5 100 158 102 159.6 102.9C163.4 104.9 168.9 101.7 169.2 97.3C169.3 95.3 169.2 93.3 169.2 91.3C169.2 85.2 169.2 85.1 175.3 84.9998C177.1 84.9998 178 84.6998 177.9 82.5998C178.1 80.5998 177.4 79.7998 175.3 79.9998Z" fill="white"/>
<path d="M201.5 86.2C199.1 86 197.3 84.9 197.2 82.2C197.1 79.3 198.7 77.8 201.5 77.7C204.3 77.6 206 79.3 206 82.1C206 84.6 204.3 86 201.5 86.2Z" fill="white"/>
<path d="M65.7541 45C67.7428 37.9207 65.4226 31.8028 63.1023 25.5976C61.8593 22.3638 60.5335 19.1301 59.5391 15.8963C57.9646 10.6524 59.9534 6.45732 64.0139 2C63.1852 6.89431 65.0083 10.128 66.9142 13.3618C69.0687 17.0325 71.3061 20.7033 72.3834 24.9858C74.3722 32.2398 71.389 41.5041 65.7541 45Z" fill="white"/>
<path d="M54.8324 46C56.4229 39.5951 53.507 34.3466 51.2981 28.9202C49.0891 23.4939 49.6192 20.5583 53.507 17C52.9769 20.1135 54.3906 22.2485 55.8044 24.4724C57.3949 27.0521 58.897 29.5429 59.6038 32.5675C60.8409 37.3712 59.162 42.3528 54.8324 46Z" fill="white"/>
<path d="M107.827 51.3015C105.533 51.567 103.238 52.0096 101.209 53.0718C100.15 52.7178 100.768 51.6555 100.415 50.9474C100.768 49.177 99.5325 49.2656 98.3852 49.2656C74.3846 49.177 50.2957 49.177 26.2951 49C24.1774 49 23.648 49.7081 23.9127 51.7441C24.7951 59.0911 26.2069 66.261 28.9422 73.1655C31.6776 80.0696 35.7365 86.0889 41.2955 91.9311C34.6777 91.9311 28.7658 91.9311 22.8538 91.9311C21.8832 91.9311 20.5597 91.3999 20.1185 92.3736C19.6773 93.4359 20.5597 94.4981 21.2656 95.2947C24.8833 99.4551 29.5599 101.934 35.1189 101.934C53.2076 102.022 71.2963 102.022 89.385 101.934C94.3263 101.934 98.5617 99.8977 102.18 96.534C103.415 95.4718 105.003 93.967 104.297 92.3736C103.768 91.1344 101.738 91.8425 100.415 91.8425C94.8557 91.754 89.385 91.8425 83.5613 91.8425C85.8555 89.01 87.9732 86.7085 89.6497 84.1415C91.0615 82.1055 92.5616 80.6007 95.1205 80.0696C98.4735 79.3615 101.562 77.9452 104.562 76.1748C109.945 72.9884 114.886 69.2707 117.268 63.2514C119.915 56.524 115.062 50.4163 107.827 51.3015ZM50.6487 61.7466C51.3546 61.3925 53.2076 61.0385 53.5605 62.1892C54.5311 65.1103 51.6193 65.9955 49.8546 67.5003C50.1193 65.5529 48.0898 63.1629 50.6487 61.7466ZM69.5315 92.7277C66.355 92.7277 64.6785 92.1966 65.3844 88.6559C66.0903 85.2922 64.2373 84.9381 61.4137 84.9381C58.5018 84.9381 57.09 85.5577 57.443 88.7444C57.6195 89.8951 58.2371 91.9311 56.8253 92.3736C54.7076 92.9933 52.237 92.9048 50.031 92.3736C49.0604 92.1966 49.4134 91.1344 49.3251 90.3377C49.3251 86.2659 49.3251 82.1941 49.3251 78.0337C49.3251 76.7944 49.7663 75.9978 50.6487 75.2011C53.8252 72.4573 56.9136 69.6247 59.9136 66.7922C60.9725 65.8185 61.6784 65.5529 62.9137 66.7036C65.9138 69.6247 69.0904 72.3688 72.2669 75.1126C73.2375 75.9978 73.6787 76.9715 73.6787 78.2993C73.5905 80.2467 73.6787 82.2826 73.6787 84.23C73.6787 85.6463 73.5022 87.1511 73.6787 88.5674C74.2964 92.1081 72.7081 92.7277 69.5315 92.7277ZM77.8259 76.0863C76.9435 77.237 76.4141 76.4404 75.7964 75.9093C71.8257 72.2803 67.7668 68.651 63.7961 65.0218C63.1784 64.4907 62.4725 63.9596 61.9431 63.4285C60.8843 63.517 60.4431 64.2251 59.8254 64.7562C55.8547 68.297 51.9723 71.9262 48.0016 75.3782C47.3839 75.9093 46.7662 77.5911 45.3544 76.0863C44.2073 74.7588 45.2662 74.1392 46.0603 73.431C50.8252 69.0936 55.59 64.8448 60.2666 60.5959C61.149 59.7992 61.6784 59.5337 62.7372 60.4188C67.6785 65.0218 72.7081 69.4477 77.7376 73.9621C78.5318 74.7588 78.5318 75.2011 77.8259 76.0863ZM110.121 64.6677C105.974 70.2444 100.15 73.8736 94.1498 77.4141C96.1793 71.6607 97.8558 65.8185 99.4443 60.0648C100.15 57.5863 103.503 56.7011 106.239 56.4355C108.356 56.17 110.121 57.0552 111.268 58.914C112.503 61.127 111.356 62.9859 110.121 64.6677Z" fill="white"/>
<path d="M261.1 99.7C261.2 94.5 261.1 89.2 261.1 84.0002C261.1 78.5002 261 73.0002 261.1 67.5002C261.1 65.5002 260.7 64.7002 258.5 64.7002C250 64.8002 241.5 64.8002 233 64.7002C231.2 64.7002 230.3 65.0002 230.3 67.1002C230.4 78.1002 230.3 89.1 230.4 100.1C230.4 101 229.9 102.3 231.4 102.5C232.7 102.7 235 103.2 235.3 102.2C236.4 98.5 239.2 100 241.4 99.9C245.1 99.7 248.9 99.8 252.6 99.9C253.7 99.9 254.9 99.5 255.5 101.4C256.2 103.7 258.5 102.5 260 102.4C261.8 102.4 261.1 100.7 261.1 99.7ZM250.3 94.5C246.4 94.5 242.6 94.4 238.7 94.5C236.8 94.5 235.8 94.2 235.8 91.9C235.6 84.5002 235.5 84.5002 242.9 84.5002C243.9 84.5002 244.9 84.5002 245.9 84.5002C247.5 84.5002 249.1 84.5002 250.7 84.5002C256 84.6002 255.4 83.9002 255.4 89.3C255.4 95.3 256.2 94.5 250.3 94.5ZM251.1 79.5002C247 79.1002 242.9 79.3002 238.8 79.5002C236.5 79.6002 235.9 78.8002 235.8 76.5002C235.8 70.1002 235.7 70.1002 241.9 70.1002C243.1 70.1002 244.4 70.1002 245.6 70.1002C247.2 70.1002 248.8 70.1002 250.5 70.1002C255.4 70.1002 255.2 70.1002 255.5 75.0002C255.7 78.5002 254.8 79.8002 251.1 79.5002Z" fill="white"/>
<path d="M148.6 47.7002C148.6 47.8002 148.6 47.8002 148.5 47.9002C148.4 48.0002 148.4 48.0002 148.3 48.0002C148.2 48.0002 148.1 48.1002 147.9 48.1002C147.7 48.1002 147.5 48.1002 147.3 48.1002C147 48.1002 146.8 48.1002 146.7 48.1002C146.5 48.1002 146.4 48.1002 146.3 48.0002C146.2 47.9002 146.1 47.9002 146.1 47.9002C146.1 47.9002 146.1 47.8002 146.1 47.7002L147.1 42.5002H142.3L141.3 47.7002C141.3 47.8002 141.3 47.8002 141.2 47.9002C141.1 48.0002 141 48.0002 140.9 48.0002C140.8 48.0002 140.7 48.1002 140.5 48.1002C140.3 48.1002 140.1 48.1002 139.9 48.1002C139.6 48.1002 139.4 48.1002 139.3 48.1002C139.2 48.1002 139 48.1002 138.9 48.0002C138.8 48.0002 138.7 47.9002 138.7 47.9002C138.7 47.8002 138.7 47.8002 138.7 47.7002L141.1 35.6002C141.1 35.5002 141.1 35.5002 141.2 35.4002C141.3 35.3002 141.3 35.3002 141.4 35.3002C141.5 35.3002 141.6 35.2002 141.8 35.2002C142 35.2002 142.2 35.2002 142.4 35.2002C142.7 35.2002 142.9 35.2002 143 35.2002C143.2 35.2002 143.3 35.2002 143.4 35.3002C143.5 35.3002 143.6 35.4002 143.6 35.4002C143.6 35.5002 143.6 35.5002 143.6 35.6002L142.7 40.3002H147.5L148.4 35.6002C148.4 35.5002 148.4 35.5002 148.5 35.4002C148.6 35.3002 148.6 35.3002 148.7 35.3002C148.8 35.3002 148.9 35.2002 149.1 35.2002C149.3 35.2002 149.5 35.2002 149.7 35.2002C150 35.2002 150.2 35.2002 150.3 35.2002C150.5 35.2002 150.6 35.2002 150.7 35.3002C150.8 35.3002 150.9 35.4002 150.9 35.4002C150.9 35.5002 150.9 35.5002 150.9 35.6002L148.6 47.7002Z" fill="white"/>
<path d="M161.5 47.7003C161.5 47.8003 161.4 47.9003 161.2 48.0003C161 48.1003 160.7 48.1003 160.3 48.1003C160.1 48.1003 159.9 48.1003 159.8 48.1003C159.7 48.1003 159.6 48.1003 159.5 48.0003C159.4 48.0003 159.4 47.9003 159.3 47.9003C159.3 47.9003 159.3 47.8003 159.3 47.7003L159.6 46.3003C159.5 46.5003 159.3 46.7003 159.1 47.0003C158.9 47.2003 158.6 47.4003 158.3 47.6003C158 47.8003 157.7 48.0003 157.3 48.1003C156.9 48.2003 156.6 48.3003 156.2 48.3003C155.7 48.3003 155.2 48.2003 154.9 48.0003C154.5 47.8003 154.3 47.6003 154.1 47.3003C153.9 47.0003 153.7 46.6003 153.6 46.2003C153.5 45.8003 153.5 45.4003 153.5 44.9003C153.5 44.5003 153.5 44.0003 153.6 43.5003C153.7 43.0003 153.8 42.5003 154 42.0003C154.2 41.5003 154.4 41.0003 154.6 40.6003C154.9 40.1003 155.2 39.7003 155.5 39.4003C155.8 39.1003 156.3 38.8003 156.7 38.6003C157.2 38.4003 157.7 38.3003 158.3 38.3003C158.8 38.3003 159.3 38.4003 159.8 38.6003C160.2 38.8003 160.6 39.2003 160.9 39.6003L161.1 38.8003C161.1 38.7003 161.2 38.6003 161.4 38.5003C161.6 38.4003 161.9 38.4003 162.3 38.4003C162.5 38.4003 162.7 38.4003 162.8 38.4003C162.9 38.4003 163 38.4003 163.1 38.5003C163.2 38.5003 163.2 38.6003 163.3 38.6003C163.3 38.6003 163.3 38.7003 163.3 38.8003L161.5 47.7003ZM160.3 41.5003C160.1 41.1003 159.8 40.9003 159.5 40.7003C159.2 40.5003 158.9 40.4003 158.5 40.4003C158.2 40.4003 158 40.5003 157.7 40.6003C157.5 40.7003 157.3 40.9003 157.1 41.1003C156.9 41.3003 156.8 41.6003 156.6 41.9003C156.5 42.2003 156.4 42.5003 156.3 42.8003C156.2 43.1003 156.1 43.4003 156.1 43.8003C156.1 44.2003 156 44.4003 156 44.7003C156 44.9003 156 45.1003 156 45.3003C156 45.5003 156.1 45.6003 156.2 45.8003C156.3 45.9003 156.4 46.0003 156.5 46.1003C156.6 46.2003 156.8 46.2003 157 46.2003C157.3 46.2003 157.6 46.1003 157.9 45.9003C158.2 45.7003 158.5 45.5003 158.8 45.2003C159.1 44.9003 159.3 44.5003 159.5 44.1003C159.7 43.7003 159.8 43.3003 159.9 42.8003L160.3 41.5003Z" fill="white"/>
<path d="M175.5 38.8003C175.5 38.9003 175.5 39.0003 175.5 39.1003C175.5 39.2003 175.5 39.3003 175.4 39.4003C175.2 40.1003 174.9 40.8003 174.6 41.5003C174.3 42.2003 174 42.9003 173.6 43.6003C173.2 44.3003 172.9 45.0003 172.4 45.7003C171.9 46.4003 171.5 47.0003 171.1 47.7003C171 47.8003 171 47.9003 170.9 47.9003C170.8 48.0003 170.7 48.0003 170.6 48.0003C170.5 48.0003 170.3 48.0003 170.1 48.1003C169.9 48.1003 169.7 48.1003 169.5 48.1003C169.1 48.1003 168.8 48.1003 168.6 48.1003C168.4 48.1003 168.2 48.1003 168.1 48.0003C168 47.9003 167.9 47.9003 167.9 47.8003C167.9 47.7003 167.8 47.6003 167.8 47.5003L166.8 39.5003C166.8 39.4003 166.8 39.3003 166.8 39.2003C166.8 39.1003 166.8 39.0003 166.8 38.9003C166.8 38.8003 166.8 38.7003 166.8 38.6003C166.8 38.5003 166.9 38.5003 167 38.4003C167.1 38.4003 167.2 38.3003 167.4 38.3003C167.6 38.3003 167.8 38.3003 168.1 38.3003C168.4 38.3003 168.6 38.3003 168.7 38.3003C168.9 38.3003 169 38.3003 169.1 38.4003C169.2 38.4003 169.2 38.5003 169.3 38.5003C169.3 38.6003 169.3 38.6003 169.3 38.7003L170.1 45.2003V45.4003V45.3003C170.4 44.8003 170.7 44.3003 171 43.8003C171.3 43.3003 171.5 42.8003 171.8 42.2003C172 41.7003 172.3 41.1003 172.5 40.5003C172.7 39.9003 172.9 39.3003 173.1 38.7003C173.1 38.6003 173.2 38.5003 173.2 38.5003C173.3 38.4003 173.3 38.4003 173.4 38.4003C173.5 38.4003 173.6 38.3003 173.8 38.3003C174 38.3003 174.2 38.3003 174.4 38.3003C174.6 38.3003 174.8 38.3003 175 38.3003C175.2 38.3003 175.3 38.3003 175.4 38.4003C175.5 38.4003 175.5 38.5003 175.6 38.5003C175.5 38.7003 175.5 38.7003 175.5 38.8003Z" fill="white"/>
<path d="M186.8 40.8004C186.8 41.3004 186.7 41.7004 186.5 42.1004C186.3 42.5004 186 42.8004 185.5 43.1004C185 43.4004 184.5 43.6004 183.8 43.7004C183.1 43.8004 182.3 43.9004 181.3 43.9004H180.4C180.4 44.1004 180.4 44.2004 180.3 44.4004C180.3 44.5004 180.3 44.7004 180.3 44.8004C180.3 45.3004 180.4 45.7004 180.7 46.0004C181 46.3004 181.4 46.4004 182 46.4004C182.4 46.4004 182.8 46.4004 183.2 46.3004C183.5 46.2004 183.9 46.2004 184.1 46.1004C184.4 46.0004 184.6 46.0004 184.7 45.9004C184.9 45.8004 185 45.8004 185.1 45.8004C185.2 45.8004 185.2 45.8004 185.3 45.9004C185.3 45.9004 185.3 46.0004 185.3 46.1004C185.3 46.2004 185.3 46.3004 185.3 46.5004C185.3 46.6004 185.3 46.8004 185.2 46.9004C185.2 47.0004 185.1 47.2004 185.1 47.3004C185 47.4004 185 47.5004 184.9 47.6004C184.8 47.7004 184.7 47.8004 184.5 47.8004C184.3 47.9004 184 48.0004 183.7 48.0004C183.4 48.1004 183.1 48.1004 182.7 48.2004C182.3 48.3004 182 48.3004 181.6 48.3004C181 48.3004 180.4 48.2004 179.9 48.1004C179.4 48.0004 179 47.8004 178.7 47.5004C178.4 47.2004 178.1 46.9004 178 46.5004C177.8 46.1004 177.8 45.6004 177.8 45.0004C177.8 44.6004 177.8 44.1004 177.9 43.6004C178 43.1004 178.1 42.6004 178.3 42.1004C178.5 41.6004 178.7 41.1004 179 40.7004C179.3 40.3004 179.6 39.9004 180.1 39.5004C180.5 39.2004 181 38.9004 181.5 38.7004C182 38.5004 182.7 38.4004 183.4 38.4004C184 38.4004 184.5 38.5004 185 38.6004C185.4 38.7004 185.8 38.9004 186.1 39.2004C186.4 39.4004 186.6 39.7004 186.7 40.0004C186.8 40.3004 186.8 40.5004 186.8 40.8004ZM184.4 41.0004C184.4 40.7004 184.3 40.5004 184.1 40.3004C183.9 40.1004 183.6 40.0004 183.2 40.0004C182.9 40.0004 182.6 40.1004 182.3 40.2004C182 40.3004 181.8 40.5004 181.6 40.7004C181.4 40.9004 181.2 41.1004 181.1 41.4004C181 41.7004 180.8 42.0004 180.8 42.3004H181.6C182.1 42.3004 182.6 42.3004 182.9 42.2004C183.3 42.1004 183.5 42.0004 183.8 41.9004C184 41.8004 184.2 41.6004 184.3 41.5004C184.3 41.4004 184.4 41.2004 184.4 41.0004Z" fill="white"/>
<path d="M204.4 47.7003C204.4 47.8003 204.3 47.9003 204.1 48.0003C203.9 48.1003 203.6 48.1003 203.2 48.1003C203 48.1003 202.8 48.1003 202.7 48.1003C202.6 48.1003 202.5 48.1003 202.4 48.0003C202.3 48.0003 202.3 47.9003 202.2 47.9003C202.2 47.9003 202.2 47.8003 202.2 47.7003L202.5 46.3003C202.4 46.5003 202.2 46.7003 202 47.0003C201.8 47.2003 201.5 47.4003 201.2 47.6003C200.9 47.8003 200.6 48.0003 200.2 48.1003C199.8 48.2003 199.5 48.3003 199.1 48.3003C198.6 48.3003 198.1 48.2003 197.8 48.0003C197.4 47.8003 197.2 47.6003 197 47.3003C196.8 47.0003 196.6 46.6003 196.5 46.2003C196.4 45.8003 196.4 45.4003 196.4 44.9003C196.4 44.5003 196.4 44.0003 196.5 43.5003C196.6 43.0003 196.7 42.5003 196.9 42.0003C197.1 41.5003 197.3 41.0003 197.5 40.6003C197.8 40.1003 198.1 39.7003 198.4 39.4003C198.7 39.1003 199.2 38.8003 199.6 38.6003C200 38.4003 200.6 38.3003 201.2 38.3003C201.7 38.3003 202.2 38.4003 202.7 38.6003C203.1 38.8003 203.5 39.2003 203.8 39.6003L204 38.8003C204 38.7003 204.1 38.6003 204.3 38.5003C204.5 38.4003 204.8 38.4003 205.2 38.4003C205.4 38.4003 205.6 38.4003 205.7 38.4003C205.8 38.4003 205.9 38.4003 206 38.5003C206.1 38.5003 206.1 38.6003 206.2 38.6003C206.3 38.6003 206.2 38.7003 206.2 38.8003L204.4 47.7003ZM203.2 41.5003C203 41.1003 202.7 40.9003 202.4 40.7003C202.1 40.5003 201.8 40.4003 201.4 40.4003C201.1 40.4003 200.9 40.5003 200.6 40.6003C200.4 40.7003 200.2 40.9003 200 41.1003C199.8 41.3003 199.7 41.6003 199.5 41.9003C199.4 42.2003 199.3 42.5003 199.2 42.8003C199.1 43.1003 199 43.4003 199 43.8003C199 44.2003 198.9 44.4003 198.9 44.7003C198.9 44.9003 198.9 45.1003 198.9 45.3003C198.9 45.5003 199 45.6003 199.1 45.8003C199.2 45.9003 199.3 46.0003 199.4 46.1003C199.5 46.2003 199.7 46.2003 199.9 46.2003C200.2 46.2003 200.5 46.1003 200.8 45.9003C201.1 45.7003 201.4 45.5003 201.7 45.2003C202 44.9003 202.2 44.5003 202.4 44.1003C202.6 43.7003 202.7 43.3003 202.8 42.8003L203.2 41.5003Z" fill="white"/>
<path d="M223.7 48.1003C223.6 48.7003 223.4 49.2003 223.1 49.7003C222.8 50.2003 222.5 50.5003 222.1 50.8003C221.7 51.1003 221.2 51.3003 220.6 51.5003C220 51.7003 219.3 51.7003 218.6 51.7003C218 51.7003 217.5 51.7003 217.1 51.6003C216.7 51.5003 216.3 51.4003 216 51.3003C215.9 51.2003 215.8 51.2003 215.8 51.1003C215.8 51.0003 215.7 50.9003 215.7 50.8003C215.7 50.8003 215.7 50.7003 215.7 50.6003C215.7 50.5003 215.7 50.4003 215.7 50.3003C215.7 50.2003 215.8 50.1003 215.8 49.9003C215.8 49.7003 215.9 49.7003 215.9 49.6003C215.9 49.5003 216 49.4003 216.1 49.4003C216.2 49.3003 216.2 49.3003 216.3 49.3003C216.4 49.3003 216.5 49.3003 216.6 49.4003C216.7 49.5003 216.9 49.5003 217.1 49.6003C217.3 49.7003 217.5 49.7003 217.8 49.8003C218.1 49.9003 218.4 49.9003 218.9 49.9003C219.2 49.9003 219.5 49.9003 219.8 49.8003C220.1 49.7003 220.3 49.7003 220.5 49.5003C220.7 49.3003 220.9 49.2003 221 49.0003C221.1 48.8003 221.2 48.6003 221.3 48.3003C221.4 47.9003 221.5 47.5003 221.6 47.2003C221.7 46.9003 221.8 46.7003 221.8 46.5003C221.7 46.7003 221.5 46.9003 221.3 47.1003C221.1 47.3003 220.8 47.5003 220.5 47.7003C220.2 47.9003 219.9 48.0003 219.6 48.1003C219.3 48.2003 218.9 48.3003 218.6 48.3003C218.1 48.3003 217.7 48.2003 217.3 48.0003C216.9 47.8003 216.7 47.6003 216.5 47.3003C216.3 47.0003 216.1 46.6003 216 46.2003C215.9 45.8003 215.9 45.3003 215.9 44.9003C215.9 44.5003 215.9 44.0003 216 43.5003C216.1 43.0003 216.2 42.5003 216.4 42.0003C216.6 41.5003 216.8 41.0003 217 40.6003C217.3 40.2003 217.6 39.8003 217.9 39.4003C218.3 39.1003 218.7 38.8003 219.1 38.6003C219.6 38.4003 220.1 38.3003 220.7 38.3003C221.2 38.3003 221.7 38.4003 222.2 38.6003C222.6 38.8003 223 39.2003 223.3 39.6003L223.5 38.8003C223.5 38.7003 223.6 38.6003 223.8 38.5003C224 38.4003 224.3 38.4003 224.7 38.4003C224.9 38.4003 225.1 38.4003 225.2 38.4003C225.3 38.4003 225.4 38.4003 225.5 38.5003C225.6 38.5003 225.6 38.6003 225.7 38.6003C225.8 38.6003 225.7 38.7003 225.7 38.8003L223.7 48.1003ZM222.6 41.5003C222.4 41.1003 222.1 40.9003 221.8 40.7003C221.5 40.5003 221.2 40.4003 220.8 40.4003C220.5 40.4003 220.3 40.5003 220 40.6003C219.8 40.7003 219.6 40.9003 219.4 41.1003C219.2 41.3003 219.1 41.6003 218.9 41.9003C218.8 42.2003 218.7 42.5003 218.6 42.8003C218.5 43.1003 218.4 43.4003 218.4 43.8003C218.4 44.2003 218.3 44.4003 218.3 44.7003C218.3 44.9003 218.3 45.1003 218.4 45.3003C218.4 45.5003 218.5 45.6003 218.6 45.8003C218.7 45.9003 218.8 46.0003 218.9 46.1003C219 46.2003 219.2 46.2003 219.4 46.2003C219.7 46.2003 220 46.1003 220.3 45.9003C220.6 45.7003 220.9 45.5003 221.2 45.2003C221.5 44.9003 221.7 44.5003 221.9 44.1003C222.1 43.7003 222.2 43.3003 222.3 42.8003L222.6 41.5003Z" fill="white"/>
<path d="M238.1 41.9003C238.1 42.4003 238.1 42.9003 238 43.4003C237.9 43.9003 237.8 44.4003 237.6 44.9003C237.4 45.4003 237.2 45.8003 236.9 46.2003C236.6 46.6003 236.2 47.0003 235.8 47.3003C235.4 47.6003 234.9 47.9003 234.4 48.1003C233.9 48.3003 233.2 48.4003 232.6 48.4003C231.9 48.4003 231.4 48.3003 230.9 48.2003C230.4 48.0003 230 47.8003 229.7 47.5003C229.4 47.2003 229.1 46.8003 229 46.4003C228.8 46.0003 228.8 45.5003 228.8 44.9003C228.8 44.4003 228.8 43.9003 228.9 43.4003C229 42.9003 229.1 42.4003 229.3 41.9003C229.5 41.4003 229.7 41.0003 230 40.5003C230.3 40.1003 230.7 39.7003 231.1 39.4003C231.5 39.1003 232 38.8003 232.5 38.6003C233 38.4003 233.7 38.3003 234.3 38.3003C235 38.3003 235.5 38.4003 236 38.5003C236.5 38.7003 236.9 38.9003 237.2 39.2003C237.5 39.5003 237.8 39.9003 237.9 40.3003C238 40.8003 238.1 41.3003 238.1 41.9003ZM235.5 42.0003C235.5 41.7003 235.5 41.5003 235.4 41.3003C235.3 41.1003 235.3 40.9003 235.1 40.8003C235 40.7003 234.8 40.5003 234.6 40.5003C234.4 40.4003 234.2 40.4003 233.9 40.4003C233.6 40.4003 233.3 40.5003 233 40.6003C232.7 40.7003 232.5 40.9003 232.3 41.1003C232.1 41.3003 231.9 41.6003 231.8 41.9003C231.6 42.2003 231.5 42.5003 231.4 42.8003C231.3 43.1003 231.2 43.4003 231.2 43.8003C231.2 44.2003 231.1 44.4003 231.1 44.7003C231.1 45.0003 231.1 45.2003 231.2 45.4003C231.3 45.6003 231.3 45.8003 231.5 46.0003C231.6 46.1003 231.8 46.3003 232 46.3003C232.2 46.4003 232.4 46.4003 232.7 46.4003C233 46.4003 233.3 46.3003 233.6 46.2003C233.9 46.1003 234.1 45.9003 234.3 45.7003C234.5 45.5003 234.7 45.2003 234.8 44.9003C235 44.6003 235.1 44.3003 235.2 44.0003C235.3 43.7003 235.4 43.4003 235.4 43.0003C235.5 42.6003 235.5 42.3003 235.5 42.0003Z" fill="white"/>
<path d="M250.8 41.9003C250.8 42.4003 250.8 42.9003 250.7 43.4003C250.6 43.9003 250.5 44.4003 250.3 44.9003C250.1 45.4003 249.9 45.8003 249.6 46.2003C249.3 46.6003 248.9 47.0003 248.5 47.3003C248.1 47.6003 247.6 47.9003 247.1 48.1003C246.6 48.3003 245.9 48.4003 245.3 48.4003C244.6 48.4003 244.1 48.3003 243.6 48.2003C243.1 48.0003 242.7 47.8003 242.4 47.5003C242.1 47.2003 241.8 46.8003 241.7 46.4003C241.5 46.0003 241.5 45.5003 241.5 44.9003C241.5 44.4003 241.5 43.9003 241.6 43.4003C241.7 42.9003 241.8 42.4003 242 41.9003C242.2 41.4003 242.4 41.0003 242.7 40.5003C243 40.1003 243.4 39.7003 243.8 39.4003C244.2 39.1003 244.7 38.8003 245.2 38.6003C245.7 38.4003 246.4 38.3003 247 38.3003C247.7 38.3003 248.2 38.4003 248.7 38.5003C249.2 38.7003 249.6 38.9003 249.9 39.2003C250.2 39.5003 250.5 39.9003 250.6 40.3003C250.8 40.8003 250.8 41.3003 250.8 41.9003ZM248.3 42.0003C248.3 41.7003 248.3 41.5003 248.2 41.3003C248.1 41.1003 248.1 40.9003 247.9 40.8003C247.8 40.7003 247.6 40.5003 247.4 40.5003C247.2 40.4003 247 40.4003 246.7 40.4003C246.4 40.4003 246.1 40.5003 245.8 40.6003C245.5 40.7003 245.3 40.9003 245.1 41.1003C244.9 41.3003 244.7 41.6003 244.6 41.9003C244.4 42.2003 244.3 42.5003 244.2 42.8003C244.1 43.1003 244 43.4003 244 43.8003C244 44.2003 243.9 44.4003 243.9 44.7003C243.9 45.0003 243.9 45.2003 244 45.4003C244.1 45.6003 244.1 45.8003 244.3 46.0003C244.4 46.1003 244.6 46.3003 244.8 46.3003C245 46.4003 245.2 46.4003 245.5 46.4003C245.8 46.4003 246.1 46.3003 246.4 46.2003C246.7 46.1003 246.9 45.9003 247.1 45.7003C247.3 45.5003 247.5 45.2003 247.6 44.9003C247.8 44.6003 247.9 44.3003 248 44.0003C248.1 43.7003 248.2 43.4003 248.2 43.0003C248.2 42.6003 248.3 42.3003 248.3 42.0003Z" fill="white"/>
<path d="M262 47.7002C262 47.8002 261.9 47.9002 261.7 48.0002C261.5 48.1002 261.2 48.1002 260.8 48.1002C260.6 48.1002 260.4 48.1002 260.3 48.1002C260.2 48.1002 260.1 48.1002 260 48.0002C259.9 48.0002 259.9 47.9002 259.8 47.9002C259.8 47.9002 259.8 47.8002 259.8 47.7002L260.1 46.3002C260 46.5002 259.8 46.7002 259.6 47.0002C259.4 47.2002 259.1 47.5002 258.8 47.6002C258.5 47.8002 258.2 48.0002 257.8 48.1002C257.4 48.2002 257.1 48.3002 256.7 48.3002C256.3 48.3002 256 48.3002 255.7 48.2002C255.4 48.1002 255.2 48.0002 255 47.8002C254.8 47.6002 254.6 47.4002 254.5 47.2002C254.4 47.0002 254.3 46.7002 254.2 46.5002C254.1 46.3002 254.1 46.0002 254 45.7002C253.9 45.4002 254 45.2002 254 44.9002C254 44.5002 254 44.0002 254.1 43.5002C254.2 43.0002 254.3 42.5002 254.5 42.0002C254.7 41.5002 254.9 41.0002 255.1 40.6002C255.3 40.2002 255.7 39.8002 256 39.4002C256.3 39.0002 256.8 38.8002 257.2 38.6002C257.7 38.4002 258.2 38.3002 258.8 38.3002C259.1 38.3002 259.3 38.3002 259.5 38.4002C259.7 38.5002 259.9 38.5002 260.1 38.6002C260.3 38.7002 260.5 38.8002 260.6 38.9002C260.8 39.0002 260.9 39.2002 261 39.3002L261.9 34.6002C261.9 34.5002 261.9 34.5002 262 34.4002C262 34.3002 262.1 34.3002 262.2 34.3002C262.3 34.3002 262.4 34.2002 262.6 34.2002C262.8 34.2002 263 34.2002 263.2 34.2002C263.4 34.2002 263.6 34.2002 263.8 34.2002C264 34.2002 264.1 34.2002 264.2 34.3002C264.3 34.3002 264.3 34.4002 264.4 34.4002C264.4 34.5002 264.4 34.5002 264.4 34.6002L262 47.7002ZM260.8 41.5002C260.6 41.1002 260.3 40.9002 260 40.7002C259.7 40.5002 259.4 40.4002 259 40.4002C258.7 40.4002 258.5 40.5002 258.3 40.6002C258.1 40.7002 257.9 40.9002 257.7 41.1002C257.5 41.3002 257.4 41.6002 257.2 41.9002C257.1 42.2002 257 42.5002 256.9 42.8002C256.8 43.1002 256.7 43.4002 256.7 43.8002C256.7 44.2002 256.6 44.4002 256.6 44.7002C256.6 45.2002 256.7 45.6002 256.8 45.8002C257 46.1002 257.2 46.2002 257.6 46.2002C257.9 46.2002 258.2 46.1002 258.5 45.9002C258.8 45.7002 259.1 45.5002 259.4 45.2002C259.7 44.9002 259.9 44.6002 260.1 44.2002C260.3 43.8002 260.4 43.4002 260.5 42.9002L260.8 41.5002Z" fill="white"/>
<path d="M281.4 47.7002C281.4 47.8002 281.3 47.9002 281.1 48.0002C280.9 48.1002 280.6 48.1002 280.2 48.1002C280 48.1002 279.8 48.1002 279.7 48.1002C279.6 48.1002 279.5 48.1002 279.4 48.0002C279.3 48.0002 279.3 47.9002 279.2 47.9002C279.2 47.9002 279.2 47.8002 279.2 47.7002L279.5 46.3002C279.4 46.5002 279.2 46.7002 279 47.0002C278.8 47.2002 278.5 47.5002 278.2 47.6002C277.9 47.8002 277.6 48.0002 277.2 48.1002C276.8 48.2002 276.5 48.3002 276.1 48.3002C275.7 48.3002 275.4 48.3002 275.1 48.2002C274.8 48.1002 274.6 48.0002 274.4 47.8002C274.2 47.6002 274 47.4002 273.9 47.2002C273.8 47.0002 273.7 46.7002 273.6 46.5002C273.5 46.3002 273.5 46.0002 273.4 45.7002C273.3 45.4002 273.4 45.2002 273.4 44.9002C273.4 44.5002 273.4 44.0002 273.5 43.5002C273.6 43.0002 273.7 42.5002 273.9 42.0002C274.1 41.5002 274.3 41.0002 274.5 40.6002C274.7 40.2002 275.1 39.8002 275.4 39.4002C275.7 39.0002 276.2 38.8002 276.6 38.6002C277.1 38.4002 277.6 38.3002 278.2 38.3002C278.5 38.3002 278.7 38.3002 278.9 38.4002C279.1 38.5002 279.3 38.5002 279.5 38.6002C279.7 38.7002 279.9 38.8002 280 38.9002C280.2 39.0002 280.3 39.2002 280.4 39.3002L281.3 34.6002C281.3 34.5002 281.3 34.5002 281.4 34.4002C281.4 34.3002 281.5 34.3002 281.6 34.3002C281.7 34.3002 281.8 34.2002 282 34.2002C282.2 34.2002 282.4 34.2002 282.6 34.2002C282.8 34.2002 283 34.2002 283.2 34.2002C283.4 34.2002 283.5 34.2002 283.6 34.3002C283.7 34.3002 283.7 34.4002 283.8 34.4002C283.8 34.5002 283.8 34.5002 283.8 34.6002L281.4 47.7002ZM280.2 41.5002C280 41.1002 279.7 40.9002 279.4 40.7002C279.1 40.5002 278.8 40.4002 278.4 40.4002C278.1 40.4002 277.9 40.5002 277.7 40.6002C277.5 40.7002 277.3 40.9002 277.1 41.1002C276.9 41.3002 276.8 41.6002 276.6 41.9002C276.5 42.2002 276.4 42.5002 276.3 42.8002C276.2 43.1002 276.1 43.4002 276.1 43.8002C276.1 44.2002 276 44.4002 276 44.7002C276 45.2002 276.1 45.6002 276.2 45.8002C276.4 46.1002 276.6 46.2002 277 46.2002C277.3 46.2002 277.6 46.1002 277.9 45.9002C278.2 45.7002 278.5 45.5002 278.8 45.2002C279.1 44.9002 279.3 44.6002 279.5 44.2002C279.7 43.8002 279.8 43.4002 279.9 42.9002L280.2 41.5002Z" fill="white"/>
<path d="M294.2 47.7003C294.2 47.8003 294.1 47.9003 293.9 48.0003C293.7 48.1003 293.4 48.1003 293 48.1003C292.8 48.1003 292.6 48.1003 292.5 48.1003C292.4 48.1003 292.3 48.1003 292.2 48.0003C292.1 48.0003 292.1 47.9003 292 47.9003C292 47.9003 292 47.8003 292 47.7003L292.3 46.3003C292.2 46.5003 292 46.7003 291.8 47.0003C291.6 47.2003 291.3 47.4003 291 47.6003C290.7 47.8003 290.4 48.0003 290 48.1003C289.6 48.2003 289.3 48.3003 288.9 48.3003C288.4 48.3003 287.9 48.2003 287.6 48.0003C287.2 47.8003 287 47.6003 286.8 47.3003C286.6 47.0003 286.4 46.6003 286.3 46.2003C286.2 45.8003 286.2 45.4003 286.2 44.9003C286.2 44.5003 286.2 44.0003 286.3 43.5003C286.4 43.0003 286.5 42.5003 286.7 42.0003C286.9 41.5003 287.1 41.0003 287.3 40.6003C287.6 40.1003 287.9 39.7003 288.2 39.4003C288.5 39.1003 289 38.8003 289.4 38.6003C289.8 38.4003 290.4 38.3003 291 38.3003C291.5 38.3003 292 38.4003 292.5 38.6003C292.9 38.8003 293.3 39.2003 293.6 39.6003L293.8 38.8003C293.8 38.7003 293.9 38.6003 294.1 38.5003C294.3 38.4003 294.6 38.4003 295 38.4003C295.2 38.4003 295.4 38.4003 295.5 38.4003C295.6 38.4003 295.7 38.4003 295.8 38.5003C295.9 38.5003 295.9 38.6003 296 38.6003C296.1 38.6003 296 38.7003 296 38.8003L294.2 47.7003ZM292.9 41.5003C292.7 41.1003 292.4 40.9003 292.1 40.7003C291.8 40.5003 291.5 40.4003 291.1 40.4003C290.8 40.4003 290.6 40.5003 290.3 40.6003C290.1 40.7003 289.9 40.9003 289.7 41.1003C289.5 41.3003 289.4 41.6003 289.2 41.9003C289.1 42.2003 289 42.5003 288.9 42.8003C288.8 43.1003 288.7 43.4003 288.7 43.8003C288.7 44.2003 288.6 44.4003 288.6 44.7003C288.6 44.9003 288.6 45.1003 288.6 45.3003C288.6 45.5003 288.7 45.6003 288.8 45.8003C288.9 45.9003 289 46.0003 289.1 46.1003C289.2 46.2003 289.4 46.2003 289.6 46.2003C289.9 46.2003 290.2 46.1003 290.5 45.9003C290.8 45.7003 291.1 45.5003 291.4 45.2003C291.7 44.9003 291.9 44.5003 292.1 44.1003C292.3 43.7003 292.4 43.3003 292.5 42.8003L292.9 41.5003Z" fill="white"/>
<path d="M308.2 38.8002C308.2 38.9002 308.2 39.0002 308.2 39.1002C308.2 39.2002 308.2 39.3002 308.1 39.4002C307.9 40.0002 307.6 40.6002 307.4 41.3002C307.1 41.9002 306.8 42.6002 306.5 43.3002C306.2 44.0002 305.8 44.7002 305.3 45.4002C304.8 46.1002 304.4 46.9002 303.8 47.7002L301.4 51.1002C301.3 51.2002 301.3 51.3002 301.2 51.3002C301.1 51.4002 301 51.4002 300.9 51.4002C300.8 51.4002 300.6 51.5002 300.4 51.5002C300.2 51.5002 300 51.5002 299.7 51.5002C299.4 51.5002 299.2 51.5002 299 51.5002C298.8 51.5002 298.7 51.4002 298.6 51.4002C298.5 51.4002 298.5 51.3002 298.5 51.2002C298.5 51.1002 298.6 51.0002 298.6 50.9002L300.9 47.9002L299.4 39.4002C299.4 39.3002 299.4 39.2002 299.4 39.1002C299.4 39.0002 299.4 38.9002 299.4 38.9002C299.4 38.8002 299.4 38.7002 299.5 38.6002C299.5 38.5002 299.6 38.5002 299.7 38.4002C299.8 38.4002 299.9 38.3002 300.1 38.3002C300.3 38.3002 300.5 38.3002 300.7 38.3002C301 38.3002 301.2 38.3002 301.3 38.3002C301.4 38.3002 301.6 38.3002 301.7 38.4002C301.8 38.4002 301.8 38.5002 301.9 38.5002C301.9 38.6002 302 38.6002 302 38.7002L302.9 44.9002C303.2 44.4002 303.5 43.9002 303.8 43.4002C304.1 42.9002 304.3 42.4002 304.5 41.8002C304.7 41.3002 304.9 40.7002 305.1 40.2002C305.3 39.7002 305.5 39.1002 305.6 38.6002C305.6 38.5002 305.6 38.5002 305.7 38.4002C305.7 38.4002 305.8 38.3002 305.9 38.3002C306 38.3002 306.2 38.2002 306.3 38.2002C306.4 38.2002 306.7 38.2002 307 38.2002C307.4 38.2002 307.7 38.2002 307.9 38.3002C308.1 38.6002 308.2 38.7002 308.2 38.8002Z" fill="white"/>
<path d="M154.5 94.5C151.2 92.1 150.3 89.4 152.3 85.7C152.9 84.6 152.9 83.3 153.2 82.1C153.9 79.6 152.3 76.7 155.7 74.7C157.1 73.9 156.3 71 154 70C152.5 67.6 149.9 67.3 148.9 69.6C148.4 70.9 147.8 71.1 146.7 70.9C145 70.6 146 69.4 146 68.5C146.1 67.3 146.2 66 146.4 64.8C146.7 63.2 146.4 62.3 144.4 62.2C142.5 62.1 141.2 62.1 141.2 64.5C141.2 66.1 141 67.7 140.8 69.3C140.7 70.3 140.6 71.4 139.2 71.4C135.2 71.2 137 75.1 137.4 75.3C141.5 77.8 138.4 80.8 138.2 83.4C138 85.2 138.3 86.4 139.7 87.6C145 92.5 144.9 92.5 139.4 97.5C138.7 98.2 137.9 98.8 137.2 99.5C140.9 103.4 140.9 103.4 144.5 99.8C144.9 99.4 145.4 98.9 145.7 98.4C147.3 95.7 148.8 95.4 150.7 98.2C151.2 98.9 151.9 101.1 153.3 99.2C154.4 98 157.3 96.6 154.5 94.5ZM148.7 77.9C148.5 80.9 147.9 83.8 146.7 86.9C145.2 85.8 143.3 85.3 143.5 83.6C143.8 81.2 144.4 78.7 145.2 76.4C145.3 76 147.1 75.9 148 76.1C149 76.2 148.7 77.2 148.7 77.9Z" fill="white"/>
</svg>
